<svg id="Layer_1" data-name="Layer 1" xmlns="http://www.w3.org/2000/svg" viewBox="0 0 237.23 248.93"><defs><style>.cls-1{fill:#fff;}</style></defs><title>Untitled-1</title><path class="cls-1" d="M204,283.59l45.94-44.41c2.13,1.27,4.13,2.58,6.23,3.69,17.59,9.25,35.45,11.13,53.67,1.8a7.18,7.18,0,0,0,1-.45c5.09-3.8,9.75-3.37,15.43-.27,20.53,11.24,40.43,8,59.59-4l1.37-.84c4,3.86,8.07,7.71,12.08,11.6,10.87,10.53,21.71,21.1,32.62,31.6,1.19,1.15,1.21,1.88.37,3.34-4.15,7.14-8.38,14.26-12.08,21.64-5.66,11.32-5.46,23.17-1.24,34.79,2.9,8,6.76,15.66,10.33,23.42,9.57,20.85,10.73,42.08,2.28,63.47-6.33,16-17.9,26.9-34.24,32.64-11.27,4-23.05,5.21-34.74,7-5.46.83-10.95,1.52-16.31,2.77-10.17,2.39-18.59,7.93-25.71,15.47-1.41,1.49-2.41,1.73-3.9.1-8.74-9.58-19.6-15.06-32.43-16.95-11.87-1.75-23.8-3.36-35.53-5.87-34.87-7.47-47.94-35.24-48.66-61.78-.4-14.57,3.23-28.17,9.88-41.08,2.32-4.5,4.46-9.1,6.51-13.74,6.46-14.64,6.47-29.17-1.14-43.44C211.68,297.36,207.91,290.71,204,283.59Zm46.37-40.71-42.58,41.19c3.48,6.4,6.87,12.46,10.09,18.6,6.74,12.84,8.31,26.27,3.42,40a167.68,167.68,0,0,1-8.81,20c-8.5,16.65-11.9,34.1-8.07,52.5,4.68,22.56,17.4,38.56,40.16,44.67,11.46,3.08,23.33,4.84,35.13,6.38,14.59,1.91,27.61,6.69,38.06,17.4a5.38,5.38,0,0,0,1.16.69c9.91-10.53,22.17-15.8,36.28-17.67,11.36-1.51,22.73-3.29,33.92-5.73,16.27-3.53,29.21-12.28,37-27.32,10.42-20.17,10.68-41,2.48-62-3-7.61-7-14.81-10.2-22.33-6.82-15.87-7.5-31.72.94-47.32,3.21-5.94,6.54-11.82,10-18L387,243a4.52,4.52,0,0,0-.69.2c-.92.54-1.82,1.11-2.75,1.64a65.79,65.79,0,0,1-30.2,8.78,52.69,52.69,0,0,1-28.9-7.18c-4.3-2.5-7.69-2.34-11.93.08-12.16,6.93-25.26,8.71-39,5.89A67.68,67.68,0,0,1,250.36,242.88Z" transform="translate(-200 -239.15)"/><path class="cls-1" d="M386.73,248.38q18.56,18,37.48,36.36a100,100,0,0,0-12.46,23.76c-6.45,16.8-3.72,32.62,4.12,48.16,4.28,8.48,8.91,16.84,11.12,26.23,4.28,18.14,3,35.5-6.75,51.8-6.05,10.11-15.19,16.28-25.89,20.46-9.13,3.57-18.78,4.72-28.41,5.89-9.9,1.21-19.81,2.4-29.2,6.06a41.83,41.83,0,0,0-15.5,10.19c-1.09,1.15-1.86,1.86-3.38.25-7.66-8.12-17.51-12.07-28.23-13.93-9.55-1.66-19.2-2.76-28.78-4.25-13.46-2.09-26.05-6.43-35.76-16.43-10.1-10.41-14.73-23.32-15.46-37.69-.73-14.12,2.52-27.33,9-39.87,4.68-9.1,9.2-18.27,11.37-28.42,2.58-12-.62-23.19-5.18-34-2.43-5.78-6-11.11-9.1-16.57-.7-1.2-.88-1.9.2-2.94q17.88-17.25,35.71-34.55a7.66,7.66,0,0,1,.85-.62c1.42.87,2.89,1.86,4.44,2.67,16.75,8.84,34,11.81,52.11,4.31a24.31,24.31,0,0,0,6.11-3.24c3.09-2.51,5.56-2,8.73.07,9.22,5.92,19.52,8.1,30.37,7.26A63.51,63.51,0,0,0,383.45,250c.9-.57,1.83-1.09,2.76-1.62C386.27,248.35,386.37,248.38,386.73,248.38Zm16.74,75.87H235.39c-.55,15-5.2,28.57-11.93,41.64a79.29,79.29,0,0,0-9,33.52c-1,26.37,13.46,46.13,38.61,51.94,9.94,2.3,20.16,3.41,30.28,4.91,9.25,1.37,18.59,2.39,26.93,7.06,3.23,1.8,6.19,4.06,9.44,6.22,7.7-7.41,17.45-10.51,27.8-12.13,11.08-1.74,22.14-3.5,33.25-5,24-3.25,40.9-20.43,43.3-44.49,1.29-13-1.43-25.32-6.55-37.19-2.93-6.77-6.28-13.37-9-20.23A75.38,75.38,0,0,1,403.47,324.25ZM220.09,285.52c.54.89,1,1.66,1.45,2.38,6.13,8.85,11.22,18.19,13.11,28.94.32,1.86,1.38,1.9,2.82,1.9q81.9,0,163.81,0c1.88,0,2.66-.54,3-2.39a62.07,62.07,0,0,1,8.8-21.91c1.84-2.93,3.69-5.85,5.59-8.84a16,16,0,0,0-1.06-1.25C407.85,275.13,398,266,388.4,256.57c-2.32-2.28-3.83-2.16-6.48-.77-18,9.46-36.55,11.05-55.55,3.07-2.37-1-4.6-3.21-6.91-3.22s-4.54,2.19-6.91,3.19c-19.61,8.24-38.59,6.29-57-3.74-1.75-.95-2.77-.78-4.1.52-3.62,3.56-7.34,7-11,10.51C233.69,272.56,226.94,279,220.09,285.52Z" transform="translate(-200 -239.15)"/><path class="cls-1" d="M279.49,332.11c4.11,3.69,8.06,7.25,12.29,11.07-10.16,9.27-19.63,18.94-24.55,32.28,3.7-.78,7.16-1.75,10.69-2.21,26.3-3.4,37.85,18.48,35.62,36.37-2.38,19.07-19.12,30.2-34.79,30.85-17.87.74-36-11.5-37.76-32.13-.77-9.19,1.46-18,4.47-26.63,6.7-19.14,18-35.2,33-48.81C278.67,332.66,279,332.48,279.49,332.11Zm-1.92,56a18.43,18.43,0,1,0-.06,36.86c10.15,0,18.71-8.62,18.54-18.57A18.54,18.54,0,0,0,277.57,388.1Z" transform="translate(-200 -239.15)"/><path class="cls-1" d="M374.13,343.46c-10.44,9.36-19.56,19.18-24.69,32.68,1.4-.42,2.3-.67,3.19-.95a38.41,38.41,0,0,1,20.82-.94c13.12,3.23,19.83,12.6,22.05,25.1,3.89,21.86-12,40.3-34.24,41.34-17.4.82-33-9.83-37.1-26.66-2.17-8.85-.64-17.52,1.77-26.06,6-21.42,18.09-39.07,34.21-54.14,1.21-1.13,2-1.26,3.31,0C366.85,337,370.4,340.11,374.13,343.46Zm-14.32,81.86a18.54,18.54,0,1,0-18.54-18.48A18.67,18.67,0,0,0,359.81,425.32Z" transform="translate(-200 -239.15)"/><path class="cls-1" d="M265,295.29l9.85,13.42c-3.2,0-5.9.11-8.57-.08-.67-.05-1.38-1-1.89-1.66a120.8,120.8,0,0,0-8.28-10.33v11.88h-7.46V277.65H265c4.68,0,7.25,1.92,8.12,6,1,4.93-.8,8.79-5,10.52C267.22,294.59,266.3,294.85,265,295.29ZM256.26,284v5.45c2.29,0,4.4,0,6.52,0,1.57,0,2.87-.5,2.92-2.36a2.69,2.69,0,0,0-2.68-3C260.84,283.93,258.64,284,256.26,284Z" transform="translate(-200 -239.15)"/><path class="cls-1" d="M305.29,292.89c0,12.24-11.52,20.1-21.67,14.77-6-3.17-9.32-10.22-8.21-17.67A15.68,15.68,0,0,1,288,276.8C296.93,275.07,305.28,282.84,305.29,292.89Zm-7.08.81a43.89,43.89,0,0,0-.95-4.38,7.7,7.7,0,0,0-6.83-5.49,7.51,7.51,0,0,0-7.06,5.17,10.08,10.08,0,0,0,1,9.68c2.84,4.25,8.13,4.66,11.24.64C296.93,297.59,297.5,295.27,298.21,293.7Z" transform="translate(-200 -239.15)"/><path class="cls-1" d="M369.92,285.13v4.23h13.72v6.89H370V301h13.86a60.77,60.77,0,0,1-.08,6.11,2.25,2.25,0,0,1-1.68,1.34c-6,.1-11.93.11-17.9,0a2.4,2.4,0,0,1-1.74-1.58c-.11-9.61-.08-19.22-.08-29.08h21.29v7.32Z" transform="translate(-200 -239.15)"/><path class="cls-1" d="M308,277.77h6.94c0,1,.12,1.89.12,2.83,0,5.43-.05,10.86,0,16.29.05,3.86,1.69,5.43,5.36,5.42,3.2,0,4.57-1.29,4.59-4.52,0-6.58,0-13.16,0-19.94h7.27c0,1.3,0,2.52,0,3.73-.05,6.05,0,12.11-.21,18.16-.13,4.4-2.45,7.65-6.72,8.51a27.84,27.84,0,0,1-10,.17,9,9,0,0,1-7.36-9C307.87,292.31,308,285.19,308,277.77Z" transform="translate(-200 -239.15)"/><path class="cls-1" d="M351.42,308.58h-7.65V284.67h-7.69v-6.86h23.27v6.76h-7.93Z" transform="translate(-200 -239.15)"/></svg>